# xmcd CD database file
#
# Track frame offsets:
#	150
#	15716
#	29128
#	44879
#	60410
#	74815
#	89115
#	103611
#	117555
#	131234
#	147004
#	161347
#	176865
#	192107
#	208013
#	221268
#	236345
#	250933
#	264608
#	278833
#	292329
#
# Disc length: 4083 seconds
#
# Revision: 0
# Processed by: cddbd v1.5.2PL0 Copyright (c) Steve Scherf et al.
# Submitted via: CDex 1.70beta2
#
DISCID=580ff115
DTITLE=Bessie Smith - Giants of Jazz 1
DYEAR=1900
DGENRE=Jazz
TTITLE0=Down Hearted Blues: Bessie Smith 
TTITLE1=Baby Won’t You Please Come Home: Bessie Smith 
TTITLE2=’Tain’t Nobody’s Bizness if I Do: Bessie Smith
TTITLE3=Any Woman’s Blues: Bessie Smith
TTITLE4=Weeping Willow Blues: Bessie Smith
TTITLE5=Sinful Blues: Bessie Smith
TTITLE6=St. Louis Blues: Bessie Smith 
TTITLE7=Reckless Blues: Bessie Smith
TTITLE8=Sobbin’ Hearted Blues: Bessie Smith
TTITLE9=You’ve Been a Good Ole Wagon: Bessie Smith
TTITLE10=Cake Walkin’ Babies: Bessie Smith with Henderson’s Hot Six 
TTITLE11=Careless Love Blues: Bessie Smith
TTITLE12=I Ain’t Goin’ to Play No Second Fiddle: Bessie Smith 
TTITLE13=My Man Blues: Bessie Smith and Clara Smith
TTITLE14=Squeeze Me: Bessie Smith
TTITLE15=Jazzbo Brown from Memphis Town: Bessie Smith
TTITLE16=The Gin House Blues: Bessie Smith
TTITLE17=Baby Doll: Bessie Smith
TTITLE18=Young Woman’s Blues: Bessie Smith and Her Blue Boys
TTITLE19=After You’ve Gone: Bessie Smith and Her Band
TTITLE20=Muddy Water (A Mississippi Moan): Bessie Smith and Her Band 
EXTD=
EXTT0=
EXTT1=
EXTT2=
EXTT3=
EXTT4=
EXTT5=
EXTT6=
EXTT7=
EXTT8=
EXTT9=
EXTT10=
EXTT11=
EXTT12=
EXTT13=
EXTT14=
EXTT15=
EXTT16=
EXTT17=
EXTT18=
EXTT19=
EXTT20=
PLAYORDER=
